<?xml version="1.0" encoding="utf-8"?>
<!-- Generator: Adobe Illustrator 16.0.0, SVG Export Plug-In . SVG Version: 6.00 Build 0)  -->
<!DOCTYPE svg PUBLIC "-//W3C//DTD SVG 1.1//EN" "http://www.w3.org/Graphics/SVG/1.1/DTD/svg11.dtd">
<svg version="1.1" id="Layer_1" xmlns="http://www.w3.org/2000/svg" xmlns:xlink="http://www.w3.org/1999/xlink" x="0px" y="0px"
	 width="133.415px" height="133.416px" viewBox="0 0 133.415 133.416" enable-background="new 0 0 133.415 133.416"
	 xml:space="preserve">
<g>
	<path id="XMLID_48_" fill="#f75a5a" d="M66.706,66.709V2.902l0,0c35.238,0,63.806,28.566,63.806,63.808l0,0H66.706z"/>
	<path id="XMLID_50_" fill="#FFCA28" d="M66.706,66.709L66.706,66.709h63.806v63.805l0,0
		C95.273,130.515,66.706,101.948,66.706,66.709z"/>
	<path id="XMLID_52_" fill="#60ad5e" d="M2.902,66.709L2.902,66.709c0-35.24,28.566-63.808,63.804-63.808l0,0l0,0
		C66.706,38.144,38.142,66.709,2.902,66.709L2.902,66.709z"/>
	<path id="XMLID_51_" fill="#2e7d32" d="M2.902,66.709L2.902,66.709L2.902,66.709c35.24,0,63.804,28.567,63.804,63.804l0,0l0,0
		C31.468,130.515,2.902,101.947,2.902,66.709z"/>
</g>
</svg>

